<svg id="Layer_1" enable-background="new 0 0 511.939 511.939" height="512" viewBox="0 0 511.939 511.939" width="512" xmlns="http://www.w3.org/2000/svg"><path d="m68.981 52.445v379.897c0 24.575 47.704 44.497 106.549 44.497s106.549-19.922 106.549-44.497v-379.897z" fill="#ffa991"/><path d="m248.627 325.318c0 5.959 1.668 11.799 4.817 16.861 6.472 10.406 7.658 23.248 3.201 34.661-9.655 24.723-8.018 15.259-8.018 55.502 0 21.907-37.906 40.115-87.82 43.811 58.936 4.37 121.273-15.302 121.273-43.811v-379.897h-33.453z" fill="#de9191"/><ellipse cx="175.53" cy="52.445" fill="#ffd3be" rx="106.549" ry="44.498"/><ellipse cx="175.53" cy="50.675" fill="#ffa991" rx="37.458" ry="15.49"/><path d="m223.403 243.346h-31.242v-31.247c0-5.278-4.278-9.556-9.554-9.556h-15.064c-5.277 0-9.554 4.278-9.554 9.556v31.247h-31.242c-5.277 0-9.554 4.278-9.554 9.556v15.066c0 5.278 4.278 9.556 9.554 9.556h31.242v31.247c0 5.278 4.278 9.556 9.554 9.556h15.064c5.277 0 9.554-4.278 9.554-9.556v-31.247h31.242c5.277 0 9.554-4.278 9.554-9.556v-15.066c.001-5.278-4.277-9.556-9.554-9.556z" fill="#ff5a7f"/><path d="m383.545 128.061c-78.52-25.259-101.465-75.616-101.465-75.616v379.535s20.087 44.086 86.991 70.449c13.968 5.504 29.102-4.774 29.102-19.79v-334.368c-.001-9.189-5.882-17.397-14.628-20.21z" fill="#e6795f"/><path d="m354.314 182.225c30.54 26.226 85.14 6.547 85.14 6.547l-10.143 29.382 13.647 15.607-11.108 21.254 8.605 21.566s-56.475 19.237-93.232-10.194c-1.318-1.055-2.09-2.65-2.09-4.337v-75.715c0-4.752 5.572-7.209 9.181-4.11z" fill="#d4deff"/><path d="m369.616 191.221c-5.471-2.095-10.665-5.013-15.302-8.995-3.609-3.1-9.181-.643-9.181 4.11v75.715c0 1.686.773 3.282 2.09 4.337 6.933 5.551 14.568 9.369 22.392 11.913v-87.08z" fill="#abb8ff"/><path d="m354.314 340.951c30.54 26.226 85.14 6.547 85.14 6.547l-10.143 28.382 11.644 16.607-9.105 20.254 8.605 22.566s-56.475 19.237-93.232-10.194c-1.318-1.055-2.09-2.651-2.09-4.337v-75.714c0-4.753 5.572-7.21 9.181-4.111z" fill="#d4deff"/><path d="m369.616 349.947c-5.471-2.095-10.665-5.013-15.302-8.996-3.609-3.099-9.181-.643-9.181 4.111v75.714c0 1.686.773 3.282 2.09 4.337 6.933 5.551 14.568 9.369 22.392 11.913v-87.079z" fill="#abb8ff"/><ellipse cx="240.076" cy="363.019" fill="#de9191" rx="12.608" ry="8.618" transform="matrix(.056 -.998 .998 .056 -135.91 582.23)"/><g fill="#231f20"><path d="m221 50.674c0-31.321-90.94-31.293-90.94 0 0 31.484 90.94 31.154 90.94 0zm-74.716 0c1.968-2.468 12.077-7.49 29.246-7.49s27.278 5.022 29.246 7.49c-1.968 2.468-12.077 7.491-29.246 7.491s-27.278-5.023-29.246-7.491z"/><path d="m109.181 252.901v15.066c0 9.68 7.88 17.556 17.566 17.556h23.23v23.247c0 9.68 7.88 17.556 17.565 17.556h15.064c9.686 0 17.566-7.876 17.566-17.556v-23.247h23.23c9.686 0 17.566-7.876 17.566-17.556v-15.066c0-9.68-7.88-17.555-17.566-17.555h-23.23v-23.247c0-9.68-7.88-17.556-17.566-17.556h-15.064c-9.685 0-17.565 7.876-17.565 17.556v23.247h-23.23c-9.685 0-17.566 7.875-17.566 17.555zm48.808-1.555c4.425 0 8.012-3.582 8.012-8v-31.247c0-.858.692-1.557 1.542-1.557h15.064c.851 0 1.543.698 1.543 1.557v31.247c0 4.418 3.587 8 8.012 8h31.242c.851 0 1.543.698 1.543 1.556v15.066c0 .858-.692 1.557-1.543 1.557h-31.242c-4.425 0-8.012 3.582-8.012 8v31.247c0 .858-.692 1.557-1.543 1.557h-15.064c-.85 0-1.542-.698-1.542-1.557v-31.247c0-4.418-3.587-8-8.012-8h-31.242c-.851 0-1.543-.698-1.543-1.557v-15.066c0-.857.692-1.556 1.543-1.556z"/><path d="m448.993 228.501-10.596-12.119 8.632-25.002c2.185-6.331-3.965-12.399-10.286-10.134-.26.094-13.837 4.852-30.558 6.244v-39.218c0-12.76-8.111-23.942-20.183-27.824-67.126-21.594-91.912-62.54-96-70.099-1.118-14.479-13.809-27.465-36.038-36.748-68.603-28.652-192.995-10.311-192.995 38.844v379.897c0 15.32 12.831 29.115 36.128 38.845 58.556 24.453 160.231 15.213 186.841-21.158 11.881 16.092 36.679 41.908 82.191 59.842 19.212 7.574 40.054-6.593 40.054-27.232v-33.319c13.734-.638 28.349-3.537 36.858-6.441 4.288-1.46 6.515-6.186 4.901-10.418l-7.424-19.467 7.746-17.23c1.155-2.57.871-5.556-.746-7.864l-9.27-13.222 8.751-24.491c2.266-6.337-3.892-12.497-10.257-10.216-.26.094-13.837 4.852-30.558 6.244v-55.622c13.732-.637 28.349-3.537 36.858-6.441 4.328-1.473 6.555-6.276 4.856-10.532l-7.245-18.157 9.408-18c1.526-2.922 1.103-6.479-1.068-8.962zm-293.998-124.358c36.997 2.915 90.28-2.09 119.072-24.137v351.974c0 30.46-106.308 51.373-170.788 24.446-16.46-6.875-26.287-15.877-26.287-24.084v-352.35c6.672 5.161 16.23 9.951 18.571 10.479 3.635.82 7.468-.989 9.062-4.512 1.821-4.026.03-8.765-4.003-10.585-9.396-4.239-23.63-12.674-23.63-22.93 0-8.207 9.827-17.21 26.287-24.084 39.673-16.568 104.835-16.567 144.5 0 69.155 28.879-10.902 66.193-91.523 59.831-4.418-.351-8.269 2.94-8.618 7.346-.347 4.405 2.946 8.257 7.357 8.606zm235.165 378.496c0 9.372-9.41 15.793-18.149 12.349-56.179-22.138-77.88-57.529-81.92-64.937v-351.807c15.186 17.785 43.244 42.07 90.997 57.431 5.427 1.746 9.073 6.807 9.073 12.596v39.302c-21.929-1.783-29.501-11.152-33.038-13.084-8.829-4.823-20 1.417-20 11.846v75.715c0 7.263 4.828 10.857 11.019 14.851 11.767 7.676 25.841 12.199 42.02 13.477v55.92c-11.116-.904-22.096-4.091-30.622-11.413-8.814-7.568-22.416-1.39-22.416 10.175v75.715c0 7.257 4.853 10.862 11.029 14.858 11.764 7.67 25.835 12.192 42.009 13.47v33.536zm36.575-123.353-4.97 13.906c-.872 2.441-.506 5.153.983 7.276l9.036 12.886-7.243 16.111c-1.787 3.975-.336 5.709 5.287 20.454-25.47 5.944-55.803 5.732-76.682-10.334v-69.394c20.52 14.631 49.176 14.409 73.589 9.095zm2.958-88.061c-25.519 5.926-55.707 5.662-76.548-10.365v-69.394c20.563 14.659 49.297 14.409 73.78 9.052l-5.188 15.028c-.935 2.709-.348 5.711 1.539 7.869l10.047 11.491-8.576 16.408c-2.261 4.33-.273 6.829 4.946 19.911z"/><path d="m120.526 98.275c7.852 5.286 16.991-5.425 10.105-12.31-3.015-3.026-8.124-3.202-11.326 0-3.599 3.592-2.944 9.568 1.221 12.31z"/></g></svg>