<svg height="512" viewBox="0 0 60 60" width="512" xmlns="http://www.w3.org/2000/svg"><g id="Page-1" fill="none" fill-rule="evenodd"><g id="064---Love-Spell" fill-rule="nonzero" transform="translate(-1)"><path id="Shape" d="m23.52 40.31c3.14 2.92 6.66 6.09 10.48 9.69 15.42-14.53 26-22.15 26-33.66 0-8.32-5.3-15.34-13-15.34-9.01 0-13 8.82-13 8.82s-3.99-8.82-13-8.82c-7.7 0-13 7.02-13 15.34 0 7.74 4.79 13.72 12.61 21.23z" fill="#e6314c"/><path id="Shape" d="m23.52 40.31c3.14 2.92 6.66 6.09 10.48 9.69 15.42-14.53 26-22.15 26-33.66 0-8.32-5.3-15.34-13-15.34-9.01 0-13 8.82-13 8.82s-3.99-8.82-13-8.82c-7.7 0-13 7.02-13 15.34 0 7.74 4.79 13.72 12.61 21.23z" fill="#e6314c"/><path id="Shape" d="m47 1c-.5080047.00171272-1.0154972.03242938-1.52.092 6.89.837 11.52 7.473 11.52 15.248 0 11.133-9.9 18.628-24.5 32.26.5.467.992.922 1.5 1.4 15.42-14.53 26-22.15 26-33.66 0-8.32-5.3-15.34-13-15.34z" fill="#b2193b"/><path id="Shape" d="m41.41 30.49-4.5.04-2.67 3.73c-.2078338.3141119-.5772966.4813198-.9504484.4301447s-.6839573-.3116769-.7995516-.6701447l-.6-2.08-.64-2.19-2.19-.64-2.08-.6c-.3584678-.1155943-.6189696-.4263998-.6701447-.7995516s.1160328-.7426146.4301447-.9504484l3.73-2.67.04-4.5c.0024471-.3781821.21314-.7242261.5479887-.9000216.3348486-.1757956.7393302-.1527182 1.0520113.0600216l3.55 2.61 4.29-1.54c.350894-.1328603.7470825-.0477019 1.0123922.2176078s.3504681.6614982.2176078 1.0123922l-1.54 4.29 2.61 3.55c.2127398.3126811.2358172.7171627.0600216 1.0520113-.1757955.3348487-.5218395.5455416-.9000216.5479887z" fill="#ffd300"/><path id="Shape" d="m42.25 28.89-2.61-3.55 1.54-4.29c.1254295-.3502737.037635-.7414711-.225447-1.004553-.2630819-.263082-.6542793-.3508765-1.004553-.225447l-1.75.628c.0571564.197057.050152.4071866-.02.6l-1.18 3.29c-.2247876.6264694-.1231995 1.3237164.271 1.86l1.979 2.692c.2127398.3126811.2358172.7171627.0600216 1.0520113-.1757955.3348487-.5218395.5455416-.9000216.5479887l-3.483.031c-.6391022.0055706-1.2370526.3162521-1.609.836l-1.138 1.589.31 1.074c.1155943.3584678.4263998.6189696.7995516.6701447s.7426146-.1160328.9504484-.4301447l2.67-3.73 4.5-.04c.3781821-.0024471.7242261-.21314.9000216-.5479887.1757956-.3348486.1527182-.7393302-.0600216-1.0520113z" fill="#f5b808"/><path id="Shape" d="m31.89 31.94-3.98 3.97-2.82-2.82 3.97-3.98 2.19.64z" fill="#c6cfd3"/><path id="Shape" d="m27.91 35.91-22.5 22.5c-.50374448.5037445-1.23796806.7004791-1.92609582.5160958s-1.22561672-.7218722-1.41-1.41c-.18438328-.6881277.01235134-1.4223513.51609582-1.9260958l22.5-22.5z" fill="#37474f"/><g fill="#ececec"><path id="Shape" d="m36.707 24.293c-.3904999-.3903819-1.0235001-.3903819-1.414 0l-.293.293-.293-.293c-.3923789-.3789722-1.0160848-.3735524-1.4018186.0121814s-.3911536 1.0094397-.0121814 1.4018186l.293.293-.293.293c-.2599566.2510745-.3642126.6228779-.2726972.9725073.0915155.3496295.3645604.6226744.7141899.7141899.3496294.0915154.7214328-.0127406.9725073-.2726972l.293-.293.293.293c.3923789.3789722 1.0160848.3735524 1.4018186-.0121814s.3911536-1.0094397.0121814-1.4018186l-.293-.293.293-.293c.3903819-.3904999.3903819-1.0235001 0-1.414z"/><path id="Shape" d="m12.817 22c-.4233131-.0002426-.8006135-.2669963-.942-.666-.5787063-1.6014245-.8747757-3.2912195-.875-4.994 0-5.983 3.505-12.34 10-12.34.5522847 0 1 .44771525 1 1s-.4477153 1-1 1c-5.2 0-8 5.327-8 10.34.001239 1.4751015.2583853 2.9388054.76 4.326.184141.5202354-.0879637 1.0912973-.608 1.276-.1075871.0381239-.2208582.0577351-.335.058z"/><circle id="Oval" cx="15" cy="25" r="1"/><path id="Shape" d="m36.015 14.086c-.5522847 0-1 .4477153-1 1v1.414c0 .5522847.4477153 1 1 1s1-.4477153 1-1v-1.414c0-.5522847-.4477153-1-1-1z"/><path id="Shape" d="m44.5 17.914.707-.707c.3789722-.3923789.3735524-1.0160848-.0121814-1.4018186s-1.0094397-.3911536-1.4018186-.0121814l-.707.707c-.2599566.2510745-.3642126.6228779-.2726972.9725073.0915155.3496295.3645604.6226744.7141899.7141899.3496294.0915154.7214328-.0127406.9725073-.2726972z"/><path id="Shape" d="m45.914 25.985c.5522847 0 1-.4477153 1-1s-.4477153-1-1-1h-1.414c-.5522847 0-1 .4477153-1 1s.4477153 1 1 1z"/><path id="Shape" d="m28.236 14.379c-.2510745-.2599566-.6228779-.3642126-.9725073-.2726972-.3496295.0915155-.6226744.3645604-.7141899.7141899-.0915154.3496294.0127406.7214328.2726972.9725073l.707.707c.3923789.3789722 1.0160848.3735524 1.4018186-.0121814s.3911536-1.0094397.0121814-1.4018186z"/><path id="Shape" d="m26.115 21.157h-1.415c-.5522847 0-1 .4477153-1 1s.4477153 1 1 1h1.414c.5522847 0 1-.4477153 1-1s-.4477153-1-1-1z"/><path id="Shape" d="m45.914 32.057c-.2510745-.2599566-.6228779-.3642126-.9725073-.2726972-.3496295.0915155-.6226744.3645604-.7141899.7141899-.0915154.3496294.0127406.7214328.2726972.9725073l.707.707c.2510745.2599566.6228779.3642126.9725073.2726972.3496295-.0915155.6226744-.3645604.7141899-.7141899.0915154-.3496294-.0127406-.7214328-.2726972-.9725073z"/><path id="Shape" d="m38.843 33.885c-.5522847 0-1 .4477153-1 1v1.415c0 .5522847.4477153 1 1 1s1-.4477153 1-1v-1.415c0-.5522847-.4477153-1-1-1z"/></g><path id="Shape" d="m47 0c-7.149 0-11.3 5.063-13 7.766-1.7-2.703-5.851-7.766-13-7.766-7.981 0-14 7.024-14 16.34 0 7.738 4.459 13.72 12.182 21.236l-17.3 17.3c-.77986975.7532234-1.09263779 1.8686337-.81809147 2.917522s1.0936812 1.8680231 2.1425695 2.1425695c1.04888829.2745463 2.16429856-.0382217 2.91752197-.8180915l17.422-17.418c1.02.944 2.067 1.908 3.161 2.91 2.079 1.91 4.288 3.936 6.607 6.122.3852236.3631979.9867764.3631979 1.372 0 2.365-2.229 4.617-4.3 6.734-6.238 11.79-10.825 19.58-17.973 19.58-28.154 0-9.316-6.019-16.34-14-16.34zm-42.293 57.707c-.39506878.3791887-1.01893122.3791887-1.414 0-.39038194-.3904999-.39038194-1.0235001 0-1.414l18.012-18.013c.008-.007.019-.009.026-.017s.008-.015.014-.022l3.741-3.741 1.414 1.414zm34.127-31.774 2.6 3.514s-.015.042-.04.043l-4.5.04c-.3179585.0042138-.6149598.159397-.8.418l-2.646 3.794-1.238-4.272c-.0956467-.3279314-.3520686-.5843533-.68-.68l-4.208-1.217 3.73-2.67c.258603-.1850402.4137862-.4820415.418-.8l.048-4.543 3.55 2.61c.2700691.1947513.6189464.2434145.932.13l4.241-1.59-1.541 4.29c-.1138961.3138679-.0636273.6638739.134.933zm-8.39 4.624.318 1.1-2.848 2.843-1.414-1.414 2.848-2.848zm9.623 12.46c-1.917 1.758-3.944 3.62-6.067 5.611-2.077-1.948-4.062-3.77-5.941-5.495-1.071-.983-2.1-1.927-3.1-2.852l6.441-6.436.133.457c.2063403.7130592.8037257 1.2443277 1.536 1.366.1126109.0195352.2267075.0292384.341.029.6544221-.0018549 1.2674375-.3204738 1.645-.855l2.374-3.317 3.992-.035c.768297-.011344 1.4646255-.4546731 1.8-1.146.3342239-.6598586.2680726-1.4517402-.171-2.047l-2.295-3.12 1.361-3.789c.2637293-.7153818.0872666-1.5188248-.4519718-2.0578483-.5392383-.5390235-1.3427515-.715166-2.0580282-.4511517l-3.789 1.36-3.107-2.289c-.5949888-.4432396-1.3892525-.5125248-2.052-.179-.6944862.3373268-1.1388775 1.0379785-1.148 1.81l-.036 3.991-3.318 2.376c-.6340357.4482128-.9544943 1.2205803-.824 1.986.1225576.7327415.6544132 1.3303014 1.368 1.537l.453.131-6.553 6.559c-7.355-7.15-11.6-12.776-11.6-19.821 0-8.175 5.159-14.34 12-14.34 8.238 0 11.936 7.9 12.089 8.234.1627188.3567358.5189061.585462.911.585.3921981-.0002868.7480223-.2298129.91-.587.038-.082 3.821-8.232 12.09-8.232 6.841 0 12 6.165 12 14.34 0 9.302-7.532 16.214-18.933 26.677z" fill="#000"/></g></g></svg>