<?xml version="1.0"?>
<svg xmlns="http://www.w3.org/2000/svg" xmlns:xlink="http://www.w3.org/1999/xlink" xmlns:svgjs="http://svgjs.com/svgjs" version="1.1" width="512" height="512" x="0" y="0" viewBox="0 0 382.624 382.624" style="enable-background:new 0 0 512 512" xml:space="preserve" class=""><g><link type="text/css" rel="stylesheet" id="dark-mode-general-link"/><link type="text/css" rel="stylesheet" id="dark-mode-custom-link"/><style lang="en" type="text/css" id="dark-mode-custom-style"/><path xmlns="http://www.w3.org/2000/svg" d="m246.625 88h-32v48h-48v32h48v48h32v-48h48v-32h-48zm0 0" fill="#ffffff" data-original="#000000" style=""/><path xmlns="http://www.w3.org/2000/svg" d="m230.625 0c-83.816406 0-152 68.183594-152 152 0 36.152344 12.734375 69.359375 33.894531 95.480469l-112.519531 112.519531 22.625 22.625 112.519531-112.519531c26.121094 21.160156 59.328125 33.894531 95.480469 33.894531 83.816406 0 152-68.183594 152-152s-68.183594-152-152-152zm0 272c-31.730469 0-60.546875-12.464844-82.023438-32.648438l-5.328124-5.328124c-20.183594-21.480469-32.648438-50.296876-32.648438-82.023438 0-66.167969 53.832031-120 120-120s120 53.832031 120 120-53.832031 120-120 120zm0 0" fill="#ffffff" data-original="#000000" style=""/></g></svg>
